Coordinates
version=1
nRows=12
nColumns=46
inDegrees=yes

Units are S.I. units (second, meters, Newtons, ...)
Angles are in degrees.

endheader
time	pelvis_tilt	pelvis_list	pelvis_rotation	pelvis_tx	pelvis_ty	pelvis_tz	bb_angle	bb_tx	bb_ty	bb_tz	hip_flexion_r	hip_adduction_r	hip_rotation_r	knee_angle_r	knee_angle_r_beta	ankle_angle_r	subtalar_angle_r	mtp_angle_r	crank_angle_r	hip_flexion_l	hip_adduction_l	hip_rotation_l	knee_angle_l	knee_angle_l_beta	ankle_angle_l	subtalar_angle_l	mtp_angle_l	crank_angle_l	lumbar_extension	lumbar_bending	lumbar_rotation	arm_flex_r	arm_add_r	arm_rot_r	elbow_flex_r	pro_sup_r	wrist_flex_r	wrist_dev_r	arm_flex_l	arm_add_l	arm_rot_l	elbow_flex_l	pro_sup_l	wrist_flex_l	wrist_dev_l
      2.50000000	    -20.68418665	     -8.91244229	    -16.57264860	      0.34206214	      1.22994386	     -0.28993884	      0.00000000	      0.50000000	      0.00000000	      0.25000000	     62.54870417	      9.65547013	      4.14191139	     84.67028361	      1.47777523	     20.16954802	      4.65821624	      0.00000000	      0.00000000	     21.60644957	    -12.81173892	     -5.19943754	     36.28670615	      0.63332250	    -20.98219201	    -12.08785195	      0.00000000	      0.00000000	    -61.49972948	      8.49823815	      8.28399963	     67.17309905	     -1.42431054	     36.05769264	     55.14529647	     47.35351453	      0.00000000	      0.00000000	     44.99548733	    -16.62937200	     11.28761316	     65.48893447	     48.71857422	      0.00000000	      0.00000000
      2.50500000	    -20.59107760	     -8.54027540	    -16.63592373	      0.34177954	      1.23051121	     -0.29050228	      0.00000000	      0.50000000	      0.00000000	      0.25000000	     61.66198128	      9.39138808	      4.29309419	     82.66848643	      1.44283728	     20.64930569	      3.89527121	      0.00000000	      0.00000000	     22.68201649	    -12.25574065	     -4.72467935	     38.65839422	      0.67471626	    -21.91635726	    -13.51206828	      0.00000000	      0.00000000	    -61.95934356	      8.06322873	      8.41681878	     66.80127855	     -1.97948874	     35.19313849	     57.11900588	     47.42670629	      0.00000000	      0.00000000	     45.22604108	    -16.35020631	     11.16730118	     66.24976381	     48.66132056	      0.00000000	      0.00000000
      2.51000000	    -20.44913381	     -8.16912533	    -16.58136405	      0.34156350	      1.23085378	     -0.29109143	      0.00000000	      0.50000000	      0.00000000	      0.25000000	     60.72327431	      9.02023689	      4.39463444	     80.64913911	      1.40759302	     21.03943521	      3.44773968	      0.00000000	      0.00000000	     23.68099238	    -11.63496920	     -4.20972387	     40.96839955	      0.71503346	    -22.69380539	    -14.82608604	      0.00000000	      0.00000000	    -62.43597885	      7.72311201	      8.34874796	     66.48478059	     -2.22398227	     34.17408482	     58.63285488	     47.67120104	      0.00000000	      0.00000000	     45.33718336	    -16.16832253	     11.00839811	     67.13049890	     49.01316716	      0.00000000	      0.00000000
      2.51500000	    -20.23466395	     -7.92981831	    -16.47105167	      0.34141783	      1.23108782	     -0.29162646	      0.00000000	      0.50000000	      0.00000000	      0.25000000	     59.59798495	      8.75327765	      4.52702719	     78.53692270	      1.37072789	     21.67494945	      3.29846297	      0.00000000	      0.00000000	     24.55684834	    -11.15862896	     -3.77502951	     43.26826936	      0.75517376	    -23.15359948	    -15.82763307	      0.00000000	      0.00000000	    -62.94724371	      7.54807791	      8.21630055	     66.42978811	     -2.23050632	     33.64004491	     59.37807975	     47.76614567	      0.00000000	      0.00000000	     45.51101865	    -16.11190373	     10.96175972	     67.53967960	     49.14091311	      0.00000000	      0.00000000
      2.52000000	    -20.08402112	     -7.54104948	    -16.19996444	      0.34121585	      1.23075546	     -0.29227146	      0.00000000	      0.50000000	      0.00000000	      0.25000000	     58.66813636	      8.21182152	      4.63235354	     76.55249529	      1.33609309	     21.81466068	      3.11545267	      0.00000000	      0.00000000	     25.54892088	    -10.43936337	     -3.21617066	     45.56100786	      0.79518960	    -23.55698769	    -16.90980464	      0.00000000	      0.00000000	    -63.36388228	      7.32298628	      8.17028100	     65.53428704	     -2.52843708	     31.71598080	     61.91454853	     48.08910058	      0.00000000	      0.00000000	     45.53858324	    -15.83019442	     10.88604206	     68.76679065	     49.56579542	      0.00000000	      0.00000000
      2.52500000	    -19.77617658	     -7.17482456	    -15.77313905	      0.34113503	      1.23013873	     -0.29326880	      0.00000000	      0.50000000	      0.00000000	      0.25000000	     57.71665483	      7.37762336	      4.56795307	     74.68014455	      1.30341441	     21.57158662	      3.39189941	      0.00000000	      0.00000000	     26.35013954	     -9.63168904	     -2.63817532	     47.85948169	      0.83530553	    -23.49544150	    -17.82124454	      0.00000000	      0.00000000	    -63.76774672	      7.35882172	      7.86509425	     65.30179697	     -2.58228199	     31.07769250	     62.76492769	     48.19552670	      0.00000000	      0.00000000	     45.76426594	    -15.69484961	     10.91435578	     69.04134348	     49.68367251	      0.00000000	      0.00000000
      2.53000000	    -19.46905630	     -6.66137176	    -15.58941285	      0.34102458	      1.22949724	     -0.29364551	      0.00000000	      0.50000000	      0.00000000	      0.25000000	     56.67868535	      6.82341851	      4.99397899	     72.75653633	      1.26984111	     21.47152465	      3.66810006	      0.00000000	      0.00000000	     27.01142905	     -8.85282160	     -2.51576937	     50.00941667	      0.87282898	    -23.24272608	    -18.40528890	      0.00000000	      0.00000000	    -64.03391644	      7.01559313	      7.42650499	     65.11580447	     -2.63538088	     30.82809873	     63.08645729	     48.23175838	      0.00000000	      0.00000000	     45.92311581	    -15.54845110	     10.95539479	     69.19625528	     49.73042568	      0.00000000	      0.00000000
      2.53500000	    -19.56466321	     -6.65542900	    -14.88030322	      0.34053093	      1.22786545	     -0.29486940	      0.00000000	      0.50000000	      0.00000000	      0.25000000	     55.75271998	      6.26511015	      4.71485639	     70.69938644	      1.23393707	     21.75344577	      4.01178835	      0.00000000	      0.00000000	     28.31291676	     -8.33746914	     -1.49132759	     52.57852376	      0.91766836	    -22.62541295	    -19.54587709	      0.00000000	      0.00000000	    -64.19628993	      7.60246315	      7.51183040	     64.47015048	     -2.68579794	     29.45088156	     64.94912679	     48.43174880	      0.00000000	      0.00000000	     46.02497751	    -15.43431164	     10.97914650	     69.94021298	     49.93417236	      0.00000000	      0.00000000
      2.54000000	    -19.43871377	     -6.21708277	    -14.42560983	      0.34012557	      1.22610761	     -0.29543586	      0.00000000	      0.50000000	      0.00000000	      0.25000000	     54.90604229	      5.60880602	      4.94949331	     68.87814159	      1.20215035	     21.43354874	      4.15155850	      0.00000000	      0.00000000	     29.24905385	     -7.54208712	     -1.19271085	     54.92873920	      0.95868735	    -21.76481548	    -20.38503916	      0.00000000	      0.00000000	    -64.19456049	      7.57757959	      7.23066556	     63.88755381	     -2.85284469	     28.53070086	     66.07504597	     48.54764043	      0.00000000	      0.00000000	     46.20508980	    -15.16443986	     11.09282084	     70.36117613	     50.06657167	      0.00000000	      0.00000000
      2.54500000	    -19.55002456	     -5.80449602	    -13.86487193	      0.33981156	      1.22361802	     -0.29599846	      0.00000000	      0.50000000	      0.00000000	      0.25000000	     54.31437241	      4.93940555	      5.06062110	     67.15250722	      1.17203235	     21.02043085	      4.28796168	      0.00000000	      0.00000000	     30.42013644	     -6.82489476	     -0.79061113	     57.28449981	      0.99980313	    -20.68021732	    -20.80307642	      0.00000000	      0.00000000	    -64.03405983	      7.50146353	      8.07499446	     61.76516515	     -3.80851042	     25.06110197	     70.25310971	     49.02275695	      0.00000000	      0.00000000	     46.84052138	    -13.91346307	     11.96139831	     70.45419167	     50.48120393	      0.00000000	      0.00000000
      2.55000000	    -19.43637462	     -5.36871738	    -13.21489554	      0.33946738	      1.22126208	     -0.29687522	      0.00000000	      0.50000000	      0.00000000	      0.25000000	     53.52934809	      4.11878545	      5.06985319	     65.49662646	      1.14313178	     20.55437084	      4.34007911	      0.00000000	      0.00000000	     31.31374435	     -5.92360286	     -0.40976944	     59.60000986	      1.04021641	    -19.40565041	    -21.65747953	      0.00000000	      0.00000000	    -63.89928545	      7.71322332	      7.69418943	     61.45664775	     -3.92946482	     24.76918197	     70.67654692	     49.08224025	      0.00000000	      0.00000000	     46.96948372	    -13.70962996	     12.17856996	     70.42740842	     50.54248704	      0.00000000	      0.00000000
      2.55500000	    -19.65116157	     -4.94161164	    -12.51594185	      0.33895645	      1.21814097	     -0.29758652	      0.00000000	      0.50000000	      0.00000000	      0.25000000	     53.09588881	      3.40848408	      5.09159513	     63.89814072	      1.11523294	     19.84270368	      4.16934459	      0.00000000	      0.00000000	     32.63659129	     -5.14776356	     -0.00617283	     62.03757155	      1.08275988	    -17.92868557	    -22.01129755	      0.00000000	      0.00000000	    -63.39200224	      7.83765090	      8.32260023	     59.94850291	     -4.96751263	     22.76758584	     73.30895613	     49.50857917	      0.00000000	      0.00000000	     47.75695584	    -12.62638357	     13.43248261	     69.45902407	     51.01283901	      0.00000000	      0.00000000
